<svg width="577" height="584" fill="none" xmlns="http://www.w3.org/2000/svg"><path d="M139 314l342 199M149 262l384 220M242 254l284 164M292 226l284 164M26 385l284 162M19 450l232 133M2 529l56 32M250 583l325-193M428 545l105-64M192 550l324-196M58 561l419-253M1 529l402-242M20 450l310-189M27 385l310-189M86 348l342 197" stroke="#E8EEFA" stroke-width="2"/><path d="M163 541c29.271 0 53-14.103 53-31.5S192.271 478 163 478s-53 14.103-53 31.5 23.729 31.5 53 31.5z" fill="#E8EEFA"/><path d="M129 345s14.78 66.258 10.968 80.086c-3.812 13.828-7.631 64.353-5.243 66.74-.475 1.905 1.431 20.976 20.979 7.148 15.736-10.01 17.635-12.886 16.21-16.209-1.424-3.323-17.16.475-18.591-1.431-1.431-1.905 6.674-50.531 5.243-58.154-1.431-7.622-7.149-37.184-4.294-37.659 2.856-.475 18.592 8.104 20.023 10.966 1.431 2.862 2.381 39.565 2.381 50.531 0 10.967-4.287 61.491-.963 64.828-.475 3.811-1.906 13.821 22.885 11.915 17.635-.956 16.685-5.242 16.21-8.579-.474-3.336-22.383-9.535-23.359-11.915-.977-2.381 4.293-59.11 5.243-71.026.949-11.916-8.092-66.74-10.48-69.602C183.825 359.778 129 345 129 345z" fill="#103597"/><path d="M315.841 4.466C308.478.21 298.414 0 290.207 2.522l-8.068 2.939 157.603 87.09A38.372 38.372 0 01454.759 108L470 101.242a37.097 37.097 0 00-15.099-16.456l-139.06-80.32z" fill="#8EAFF0"/><path d="M469.621 101L454 107.774a37.77 37.77 0 014.574 18.288L459.075 446c9.328-5.792 14.959-15.826 14.925-26.593l-.773-302.78A36.456 36.456 0 00469.621 101z" fill="#7399E4"/><path d="M198 282.709L217 273l-.454 12.743L201.499 295 198 282.709zM192.35 200c.68.679 6.492 13.682-1.622 34.2-3.097 3.809-8.618 7.395-16.216 5.575a4.434 4.434 0 01-.795 3.225s-11.87-2.152-13.717-5.255c.095-6.451 2.825-18.088 2.825-18.088l14.939-18.7L192.35 200z" fill="#FDC1B0"/><path d="M440.401 453.134l-146.685-82.833c-11.585-6.543-18.736-18.795-18.716-32.062l.489-324.158a9.085 9.085 0 014.552-7.856 9.157 9.157 0 019.105-.026l149.849 85.038c12.228 6.94 19.799 19.862 19.851 33.882L460 442.126a12.849 12.849 0 01-6.566 11.217 12.946 12.946 0 01-13.033-.209z" fill="#A2C1FA"/><path d="M446 400l-158-87.088V37l158 90.945V400z" fill="#173891"/><path d="M288 312.912V37l158 90.945V400l-158-87.088z" fill="#324ACB"/><path d="M288 312.912L417.378 262 412.5 108l33.5 19.945V400l-158-87.088z" fill="#2239B9"/><path d="M417.378 262L412.5 108l33.5 19.945V283l-28.622-21z" fill="#152A9A"/><path d="M392.038 83.583L345.715 58.16A3.279 3.279 0 01344 55.29a3.277 3.277 0 011.629-2.828 3.38 3.38 0 013.299-.063l46.323 24.712a3.28 3.28 0 011.749 2.89v.711a3.275 3.275 0 01-1.647 2.836 3.378 3.378 0 01-3.315.035z" fill="#3953CE"/><path fill-rule="evenodd" clip-rule="evenodd" d="M330.5 198s-25.5 4.282-27.5 20.5-2 35.5-2 35.5 0 23 20 33 79 40.097 79 40.097 36 6.889 35-23.354S431.986 239 400 222s-69.5-24-69.5-24z" fill="url(#paint0_linear)"/><path opacity=".6" fill-rule="evenodd" clip-rule="evenodd" d="M392.538 218.252l-3.39 3.748s21.06 25 21.06 51.5c0 4.381.077 8.27.144 11.698.34 17.304.45 22.866-10.674 20.802-1.487-.276-3.704-.593-6.492-.991-20.386-2.913-71.239-10.179-89.443-37.595 2.577 6.852 7.572 14.743 17.257 19.586 20 10 79 40.097 79 40.097s36 6.889 35-23.354S431.986 239 400 222a185.671 185.671 0 00-7.462-3.748z" fill="#0062CA"/><path d="M341 233.131s1.965 2.87 5.59.666 9.865-8.297 11.071-7.065c11.457 11.713 11.091 21.016 13.32 21.262 2.229.246 9.086-7.272 11.437-9.409 5.027-4.581 17.582-17.839 17.582-17.839L395.853 214l-43.911 7.225L341 233.131z" fill="#344FC4"/><path d="M332.616 202s-3.988 19.977 8.336 31c3.821-2.717 16.048-11.257 16.048-11.257l-3.411-17.667L332.616 202z" fill="#0276F1"/><path d="M321.276 143s-1.104 11.869 1.104 18.425c2.208 6.557 1.245 13.957.673 17.168-.572 3.21-1.38 23.451 19.893 26.662 5.661 1.258 9.949-1.538 10.225 2.788.276 4.326 3.043 13.957 3.043 13.957s25.143-14.657 27.601-20.799c-1.932-1.816-6.631-6.122-5.662-11.304 10.771-10.203 14.231-23.173 13.814-24.431-.418-1.259-14.649-18.426-15.887-19.405-1.239-.98-54.804-3.061-54.804-3.061z" fill="#FDC1B0"/><path d="M368.178 106.436s-21.035-4.631-51.746 16.291c-10.98 7.037-5.027 23.524 15.264 27.402 12.657 2.406 19.36-1.297 20.103-1.479.743-.181 9.122-5.182 13.028-.188 3.905 4.994 1.486 13.146 8.379 18.146 2.236-2.594 8.189-9.812 14.149-.739 3.534 6.109-2.027 13.328-8.007 16.13-3.162 1.849-3.162 5.921-1.115 10.001 4.656-1.297 17.494-6.109 21.035-32.771 3.541-26.662-5.595-48.35-31.09-52.793z" fill="#103597"/><path d="M382 169.053l-.039 7.094-1.572.853c-.173-.109-.503-.239-.495-.328.306-2.048-.653-3.509-2.358-4.813-.841-.649-.637-1.366.228-1.891 1.219-.777 2.74-1.106 4.236-.915z" fill="#173891"/><path d="M343.347 193.205c-2.312 1.272-4.602.886-6.838-.234-2.051-1.037-4.198-2.037-5.751-4.035a4.98 4.98 0 00-.499-.507.872.872 0 01-.182-.981c.151-.334.489-.511.818-.427 1.327.507 2.735.666 4.062 1.241 2.311 1.007 4.677 1.817 6.755 3.392a4.917 4.917 0 001.553.499c1.217.288.69.689.082 1.052zM330 171c1.105 0 2-1.791 2-4s-.895-4-2-4-2 1.791-2 4 .895 4 2 4zM348 179c1.105 0 2-1.791 2-4s-.895-4-2-4-2 1.791-2 4 .895 4 2 4z" fill="#344FC4"/><path d="M346 165.818s6.227-3.563 11 4.182M327 157.28s5.735-2.007 9 4.72" stroke="#344FC4" stroke-width="3" stroke-linecap="round"/><path d="M384.682 200s13.093 6.606 12.282 15.459c-2.421 3.118-20.228 26.403-25.909 28.541-2.591-8.367-12.14-23.778-15.055-21.318 9.888-8.833 28.682-22.682 28.682-22.682z" fill="#49A7FC"/><rect x="465" y="158" width="4" height="26" rx="2" fill="#3953CE"/><rect x="465" y="191" width="4" height="26" rx="2" fill="#3953CE"/><path d="M284.662 88.073c12.282-6.005 14.828-26.013 5.688-44.688-9.141-18.674-26.507-28.944-38.788-22.938-12.282 6.006-14.828 26.013-5.687 44.688 9.14 18.674 26.506 28.944 38.787 22.938z" fill="#00843A"/><path d="M278.976 91.588c11.457-5.603 13.335-25.284 4.195-43.959-9.141-18.675-25.839-29.271-37.296-23.668-11.457 5.603-13.335 25.284-4.195 43.958 9.141 18.675 25.839 29.271 37.296 23.669z" fill="#00B44F"/><path d="M185.619 215.333s.348-9.392 4.77-10.081c4.422-.689 7.162-4.581 6.473-8.021-.688-3.439-2.889-14.189-25.763-11.919-22.874 2.27-27.194 16.014-24.305 29.447 2.889 13.433 11.672 21.623 20.108 20.048 8.435-1.574 11.093-4.351 10.513-6.304-.579-1.953-10.745-8.109-4.851-12.257 5.894-4.149 8.088 2.29 9.015 2.29.926 0 17.334-.459 17.45.23.116.689 0 2.865-4.77 2.291-.463 1.148-.81 2.29-.81 2.29s8.088 1.602 8.551-6.081c-.116-2.75-7.495-6.304-7.495-6.304-.017.58.062 1.16.231 1.716.232.345 4.504 3.324 4.389 4.122-3.905.02-13.274-.325-13.506-1.467z" fill="#173891"/><path d="M153.3 235.753s-20.735-6.198-23.691 16.972c-2.956 23.169-4.068 91.388.271 97.586 4.34 6.198 45.469 29.395 56.508 26.428 9.695-3.774 6.461-17.793 6.732-26.15.272-8.356.536-31.54.536-31.54l6.997 8.894L209 309.07s-12.116-24.534-11.845-39.089c.271-14.555-10.991-21.045-36.614-21.045-6.821.028-7.241-13.183-7.241-13.183z" fill="#517FF3"/><path d="M215.763 311.401c-.152 1.367 1.24 6.151.93 8.291-.31 2.139-3.555 11.967-2.473 12.302 1.081.335 14.233-13.813 20.571-35.759 2.012-5.523 5.415-15.502 6.035-16.575.62-1.073-.62-11.66-.62-11.66l-3.086 4.572a32.206 32.206 0 00-2.942 1.996c-1.853 1.367-1.853 11.818-1.853 11.818l-4.485-3.835-.496 6.24a7.475 7.475 0 01-.889 2.994l-10.692 19.616z" fill="#FDC1B0"/><path d="M223.029 260.546a5.628 5.628 0 017.575-2.445l8.174 4.182a5.63 5.63 0 012.446 7.579l-9.856 19.244a5.629 5.629 0 01-7.576 2.445l-8.173-4.182a5.631 5.631 0 01-2.447-7.579l9.857-19.244z" fill="#173891"/><path d="M223.981 263.461a4.3 4.3 0 015.786-1.868l6.673 3.415a4.3 4.3 0 011.868 5.788l-7.883 15.392a4.3 4.3 0 01-5.786 1.868l-6.673-3.415a4.3 4.3 0 01-1.868-5.788l7.883-15.392z" fill="#A7C1F5"/><path d="M235 283.991c0-.59-3.032-7.801-4.593-6.916-1.561.885 1.872 11.925 1.872 11.925l2.721-5.009z" fill="#FDC1B0"/><path d="M248.424 61l6.53 9.064 17.66-15.62" stroke="#fff" stroke-width="8" stroke-linecap="round" stroke-linejoin="round"/><path d="M327 130.396L303 119v27M354 143l24 11.168V181M327 208l-24-11.51V170M354 220.422L378 232v-27" stroke="#fff" stroke-width="5" stroke-linecap="round" stroke-linejoin="round"/><path fill-rule="evenodd" clip-rule="evenodd" d="M139.109 30.681c-.041 6.439-.075 12.878-.075 19.317 0 2.13.006 4.26.013 6.39.011 3.655.022 7.311.001 10.973.003 1.773.009 3.545.015 5.316.021 6.091.042 12.172-.063 18.261 0 2.28.746 3.585 2.715 4.677 3.721 2.056 7.385 4.213 11.049 6.369 1.568.923 3.136 1.845 4.708 2.76 4.601 2.658 9.198 5.324 13.79 7.996.353.239.689.504 1.004.792a6.88 6.88 0 011.215.43l21.716 12.563c1.384.799 1.73.635 1.778-.84V65.101c0-.219-.006-.434-.012-.65-.012-.43-.024-.861.012-1.316a3.11 3.11 0 00-1.758-3.21 752.833 752.833 0 01-6.539-3.77l-2.48-1.44c-2.098-1.215-4.217-2.439-6.331-3.66-2.801-1.617-5.593-3.23-8.32-4.813a4079.042 4079.042 0 01-14.333-8.378 9918.126 9918.126 0 00-15.208-8.808 6.726 6.726 0 01-.573-.393c-.629-.464-1.282-.946-1.999-.46-.53.36-.452 1.087-.377 1.784.026.24.052.477.052.694zm18.62 30.706c.077-.079.154-.158.218-.24h-.013c-.007-.487-.005-.975-.004-1.464.002-.49.004-.98-.003-1.471a14.316 14.316 0 01.678-4.46c.697-2.633 1.748-2.56 3.498-2.442l.282.019a7.62 7.62 0 014.12 1.755 14.35 14.35 0 014.424 5.107c1.588 3.346 3.027 6.719 2.654 10.563-.011.867.141 1.73.448 2.54a8.87 8.87 0 010 4.506c-.204.854-.618 1.66-1.731 1.605a22.922 22.922 0 01-1.14 2.26 4.178 4.178 0 00.061 5.005c.299.411.535.847.772 1.285.114.21.227.42.348.627 2.281 1.921 4.342 4.083 6.393 6.234.646.677 1.29 1.353 1.94 2.02a10.762 10.762 0 012.165 4.002 37.556 37.556 0 011.833 7.258c.251 1.611.427 3.23.556 4.855.075 1.003-.502 1.311-1.473.84a19.079 19.079 0 01-1.723-.915 2550.409 2550.409 0 01-8.863-5.463 5.828 5.828 0 01-.923-.908c-1.969-.818-3.76-1.954-5.551-3.09-.765-.485-1.53-.97-2.308-1.43a370.474 370.474 0 01-6.514-3.982c-2.441-1.515-4.882-3.03-7.357-4.478-1.717-.99-2.49-2.137-2.395-4.185l.024-.545c.088-2.002.175-3.989.946-5.867.91-2.219 1.765-2.847 4.187-2.772.481.014.961.015 1.442.015 1.555 0 3.111 0 4.666.49 1.201.383 1.751-.204 1.798-1.57a7.914 7.914 0 00-.61-3.496c-.293-.683-.548-1.377-.804-2.073-.485-1.321-.972-2.644-1.714-3.888-1.011-1.693-.991-3.762-.679-5.735.032-.185.192-.348.352-.512z" fill="#7399E4"/><path d="M138.91 49.9c0 5.752.061 11.504.074 17.255 0 7.816.088 15.619-.047 23.448-.04 2.268.675 3.565 2.698 4.652 5.281 2.92 10.448 6.043 15.661 9.079 4.564 2.657 9.133 5.307 13.706 7.951.351.239.684.502.998.788v18.558c0 .87 0 1.739-.054 2.601a.775.775 0 01-.374.658.761.761 0 01-.752.021 759.155 759.155 0 01-7.548-4.366c-2.131-1.256-4.235-2.56-6.367-3.816-5.477-3.21-10.96-6.408-16.45-9.595-4.843-2.798-9.719-5.555-14.576-8.332-3.176-1.82-6.34-3.654-9.53-5.433a2.253 2.253 0 01-1.349-2.037v-2.281-58.277c0-.978 0-1.956.081-2.927a.997.997 0 01.551-.749.986.986 0 01.926.037 802.196 802.196 0 017.831 4.515c3.905 2.275 7.776 4.604 11.709 6.831.883.49 1.585 1.474 2.812 1.42z" fill="#A7C1F5"/><path d="M250.975 137.261c0 4.405-.116 4.513-3.895 2.412-4.825-2.702-9.589-5.485-14.381-8.234l-15.224-8.761c-4.604-2.639-9.21-5.276-13.818-7.91-.679-.379-1.284-.804-1.903-1.243a1.686 1.686 0 01-.754-1.351v-6.472a.763.763 0 011.203-.56c2.379 1.29 4.758 2.6 7.102 3.938 5.175 2.954 10.34 5.922 15.496 8.903l14.348 8.281c3.092 1.79 6.117 3.689 9.304 5.317 1.917.986 2.76 2.296 2.502 4.383-.02.433-.013.866.02 1.297zM250.943 123a7.333 7.333 0 01-3.242-1.309c-4.558-2.624-9.096-5.296-13.64-7.948-5.008-2.925-10.015-5.848-15.023-8.768-5.189-3.038-10.357-6.104-15.566-9.115a2.574 2.574 0 01-1.457-2.61c.074-1.73 0-3.466.067-5.195 0-.943.672-1.289 1.564-.895.589.263 1.163.56 1.719.888 4.631 2.713 9.25 5.425 13.888 8.138 4.82 2.814 9.666 5.595 14.486 8.409 5.282 3.086 10.552 6.205 15.841 9.277a2.368 2.368 0 011.416 2.306c-.06 2.231.027 4.476-.053 6.822zM229.915 87.021v2.323c-.068 1.788-.601 2.08-2.223 1.109-.933-.548-1.872-1.082-2.805-1.63-6.059-3.572-12.117-7.149-18.172-10.73-.561-.333-1.074-.735-1.629-1.075a2.091 2.091 0 01-1.081-1.893v-2.648c0-5.49-.331-5.358 4.325-2.669 6.555 3.792 13.002 7.785 19.558 11.57 1.52.88 2.297 1.865 2.074 3.66a16.105 16.105 0 000 1.99l-.047-.007z" fill="#7399E4"/><path d="M174.985 239.895S170.378 238.068 170 237c2.225 3.151 4.23 5.025 4.079 6 .487-.975 1.016-2.036.906-3.105z" fill="#344FC4"/><path d="M194.478 319.401s-9.397-15.765-9.397-22.401c-.21 20.729 1.612 60.595-4.973 66.012-11.193 9.21-38.998-3.819-42.108-6.311 16.382 8.708 43.131 28.645 53.3 18.48 5.603-5.58 3.178-55.78 3.178-55.78z" fill="#0062CA"/><path d="M336 170s-4.905 6.404-4 7.702c.905 1.298 2.335 3.596 4 2.298" stroke="#344FC4" stroke-width="3" stroke-linecap="round"/><defs><linearGradient id="paint0_linear" x1="328.591" y1="334.832" x2="437.896" y2="290.43" gradientUnits="userSpaceOnUse"><stop stop-color="#49A7FC"/><stop offset="1" stop-color="#0276F1"/></linearGradient></defs></svg>